<?xml version="1.0" encoding="UTF-8" standalone="no"?>
<!-- Created with Inkscape (http://www.inkscape.org/) -->

<svg
   xmlns:dc="http://purl.org/dc/elements/1.1/"
   xmlns:cc="http://creativecommons.org/ns#"
   xmlns:rdf="http://www.w3.org/1999/02/22-rdf-syntax-ns#"
   xmlns:svg="http://www.w3.org/2000/svg"
   xmlns="http://www.w3.org/2000/svg"
   xmlns:sodipodi="http://sodipodi.sourceforge.net/DTD/sodipodi-0.dtd"
   xmlns:inkscape="http://www.inkscape.org/namespaces/inkscape"
   width="500"
   height="500"
   viewBox="0 0 132.29166 132.29167"
   version="1.1"
   id="svg8"
   inkscape:version="0.92.3 (2405546, 2018-03-11)"
   sodipodi:docname="happy_cowboy.svg">
  <defs
     id="defs2" />
  <sodipodi:namedview
     id="base"
     pagecolor="#ffffff"
     bordercolor="#666666"
     borderopacity="1.0"
     inkscape:pageopacity="0.0"
     inkscape:pageshadow="2"
     inkscape:zoom="1.4"
     inkscape:cx="393.60304"
     inkscape:cy="268.63409"
     inkscape:document-units="px"
     inkscape:current-layer="layer1"
     showgrid="false"
     units="px"
     showguides="false"
     inkscape:guide-bbox="true"
     inkscape:measure-start="140.664,343.768"
     inkscape:measure-end="359.565,343.768"
     inkscape:window-width="1920"
     inkscape:window-height="1051"
     inkscape:window-x="-9"
     inkscape:window-y="-9"
     inkscape:window-maximized="1">
    <sodipodi:guide
       position="37.21728,95.181363"
       orientation="1,0"
       id="guide837"
       inkscape:locked="false" />
    <sodipodi:guide
       position="37.271737,99.218743"
       orientation="0,1"
       id="guide839"
       inkscape:locked="false" />
    <sodipodi:guide
       position="38.219541,90.955164"
       orientation="0,1"
       id="guide841"
       inkscape:locked="false" />
    <sodipodi:guide
       position="95.134957,99.218747"
       orientation="1,0"
       id="guide843"
       inkscape:locked="false" />
  </sodipodi:namedview>
  <metadata
     id="metadata5">
    <rdf:RDF>
      <cc:Work
         rdf:about="">
        <dc:format>image/svg+xml</dc:format>
        <dc:type
           rdf:resource="http://purl.org/dc/dcmitype/StillImage" />
        <dc:title></dc:title>
      </cc:Work>
    </rdf:RDF>
  </metadata>
  <g
     inkscape:groupmode="layer"
     id="layer2"
     inkscape:label="Layer 2" />
  <g
     inkscape:label="Layer 1"
     inkscape:groupmode="layer"
     id="layer1"
     transform="translate(0,-164.70832)">
    <g
       id="g1041">
      <g
         id="g1010">
        <g
           id="g980">
          <g
             id="g951">
            <rect
               transform="translate(0,164.70832)"
               style="opacity:1;fill:#ffc83d;fill-opacity:1;stroke:#bb9167;stroke-width:0.26458332;stroke-opacity:1"
               id="rect853"
               width="87.682259"
               height="20.098469"
               x="23.064762"
               y="64.190224" />
            <rect
               transform="translate(0,164.70832)"
               style="opacity:1;fill:#ffc83d;fill-opacity:1;stroke:none;stroke-width:0.26458332;stroke-opacity:1"
               id="rect855"
               width="28.644022"
               height="26.573368"
               x="14.264491"
               y="64.822922" />
            <rect
               transform="translate(0,164.70832)"
               style="opacity:1;fill:#ffc83d;fill-opacity:1;stroke:none;stroke-width:0.26458332;stroke-opacity:1"
               id="rect859"
               width="95.816963"
               height="18.898809"
               x="18.520834"
               y="81.831841" />
            <rect
               transform="translate(0,164.70832)"
               style="opacity:1;fill:#ffc83d;fill-opacity:1;stroke:none;stroke-width:0.26458332;stroke-opacity:1"
               id="rect863"
               width="8.15172"
               height="23.252449"
               x="106.64054"
               y="63.603397" />
            <rect
               transform="translate(0,164.70832)"
               style="opacity:1;fill:#ffc83d;fill-opacity:1;stroke:none;stroke-width:0.26458332;stroke-opacity:1"
               id="rect865"
               width="18.441597"
               height="13.898015"
               x="32.205978"
               y="74.695084" />
            <rect
               transform="translate(0,164.70832)"
               style="opacity:1;fill:#ffc83d;fill-opacity:1;stroke:none;stroke-width:0.26458332;stroke-opacity:1"
               id="rect867"
               width="82.719917"
               height="18.708866"
               x="24.588797"
               y="90.196716" />
            <rect
               transform="translate(0,164.70832)"
               style="opacity:1;fill:#ffc83d;fill-opacity:1;stroke:none;stroke-width:0.26458332;stroke-opacity:1"
               id="rect869"
               width="70.158249"
               height="16.83798"
               x="30.335091"
               y="99.551147" />
            <rect
               transform="translate(0,164.70832)"
               style="opacity:1;fill:#ffc83d;fill-opacity:1;stroke:none;stroke-width:0.26458332;stroke-opacity:1"
               id="rect871"
               width="54.055264"
               height="16.971615"
               x="37.217281"
               y="107.30197" />
            <rect
               transform="translate(0,164.70832)"
               style="opacity:1;fill:#8e562e;fill-opacity:1;stroke:none;stroke-width:0.26458332;stroke-opacity:1"
               id="rect873"
               width="25.79151"
               height="34.344131"
               x="7.2162771"
               y="23.646605" />
            <rect
               transform="translate(0,164.70832)"
               style="opacity:1;fill:#8e562e;fill-opacity:1;stroke:none;stroke-width:0.26458332;stroke-opacity:1"
               id="rect875"
               width="18.708866"
               height="34.076862"
               x="106.37327"
               y="22.844793" />
            <rect
               transform="translate(0,164.70832)"
               style="opacity:1;fill:#8e562e;fill-opacity:1;stroke:none;stroke-width:0.26458332;stroke-opacity:1"
               id="rect877"
               width="23.00725"
               height="23.428902"
               x="95.134956"
               y="41.336502" />
            <rect
               transform="translate(0,164.70832)"
               style="opacity:1;fill:#8e562e;fill-opacity:1;stroke:none;stroke-width:0.26458332;stroke-opacity:1"
               id="rect879"
               width="20.847023"
               height="19.243404"
               x="100.76061"
               y="35.941002" />
            <rect
               transform="translate(0,164.70832)"
               style="opacity:1;fill:#8e562e;fill-opacity:1;stroke:none;stroke-width:0.26458332;stroke-opacity:1"
               id="rect881"
               width="57.917675"
               height="20.663279"
               x="37.217281"
               y="41.336502" />
            <rect
               transform="translate(0,164.70832)"
               style="opacity:1;fill:#8e562e;fill-opacity:1;stroke:none;stroke-width:0.26458332;stroke-opacity:1"
               id="rect883"
               width="24.802862"
               height="22.116249"
               x="17.105249"
               y="41.336502" />
            <rect
               transform="translate(0,164.70832)"
               style="opacity:1;fill:#8e562e;fill-opacity:1;stroke:none;stroke-width:0.26458332;stroke-opacity:1"
               id="rect885"
               width="57.917675"
               height="22.789795"
               x="37.217281"
               y="10.283128" />
            <rect
               transform="translate(0,164.70832)"
               style="opacity:1;fill:#8e562e;fill-opacity:1;stroke:none;stroke-width:0.26458332;stroke-opacity:1"
               id="rect889"
               width="21.114292"
               height="7.6171813"
               x="70.96006"
               y="8.0113363" />
            <rect
               transform="translate(0,164.70832)"
               style="opacity:1;fill:#8e562e;fill-opacity:1;stroke:none;stroke-width:0.26458332;stroke-opacity:1"
               id="rect891"
               width="19.510675"
               height="4.2763124"
               x="45.56945"
               y="7.7440667" />
            <rect
               transform="translate(0,164.70832)"
               style="opacity:1;fill:#8e562e;fill-opacity:1;stroke:none;stroke-width:0.26458332;stroke-opacity:1"
               id="rect893"
               width="5.1499252"
               height="4.4884672"
               x="98.179321"
               y="39.451267" />
            <rect
               transform="translate(0,164.70832)"
               style="opacity:1;fill:#8e562e;fill-opacity:1;stroke:none;stroke-width:0.26458332;stroke-opacity:1"
               id="rect895"
               width="4.6302085"
               height="21.218557"
               x="93.643593"
               y="41.336502" />
            <rect
               transform="translate(0,164.70832)"
               style="opacity:1;fill:#8e562e;fill-opacity:1;stroke:none;stroke-width:0.26458332;stroke-opacity:1"
               id="rect897"
               width="8.0319939"
               height="22.116251"
               x="33.876118"
               y="41.336502" />
            <rect
               transform="translate(0,164.70832)"
               style="opacity:1;fill:#ffc83d;fill-opacity:1;stroke:none;stroke-width:0.26458332;stroke-opacity:1"
               id="rect899"
               width="2.8146822"
               height="1.7623084"
               x="21.590366"
               y="63.394592" />
            <rect
               transform="translate(0,164.70832)"
               style="opacity:1;fill:#ffc83d;fill-opacity:1;stroke:none;stroke-width:0.26458332;stroke-opacity:1"
               id="rect901"
               width="4.4175968"
               height="4.275856"
               x="106.28218"
               y="62.224331" />
            <g
               id="g850">
              <g
                 id="flowRoot815"
                 style="font-style:normal;font-variant:normal;font-weight:normal;font-stretch:normal;font-size:40px;line-height:1.25;font-family:'HoloLens MDL2 Assets';-inkscape-font-specification:'HoloLens MDL2 Assets';letter-spacing:0px;word-spacing:0px;fill:#000000;fill-opacity:1;stroke:none"
                 transform="matrix(0.61352656,0,0,0.61352656,-56.867441,92.204628)"
                 aria-label="🤠">
                <path
                   id="path823"
                   style="font-style:normal;font-variant:normal;font-weight:normal;font-stretch:normal;font-size:192px;font-family:Corbel;-inkscape-font-specification:Corbel"
                   d="m 281.31445,145.17532 q 5.4375,0 10.3125,2.15625 4.96875,2.15625 8.625,5.8125 3.75,3.65625 5.90625,8.625 2.15625,4.875 2.15625,10.3125 v 13.5 q 0,5.8125 -1.78125,11.4375 -1.78125,5.53125 -4.875,10.5 -3.09375,4.96875 -7.3125,9.1875 -4.21875,4.125 -9.09375,7.03125 2.90625,10.96875 2.90625,22.59375 0,12.09375 -3.1875,23.25 -3.09375,11.15625 -8.8125,20.90625 -5.71875,9.65625 -13.78125,17.625 -7.96875,8.0625 -17.71875,13.6875 -9.65625,5.71875 -20.90625,8.8125 -11.15625,3.1875 -23.15625,3.1875 -12.09375,0 -23.25,-3.1875 -11.15625,-3.09375 -20.90625,-8.8125 -9.65625,-5.625 -17.71875,-13.6875 -7.96875,-7.96875 -13.6875,-17.625 -5.71875,-9.75 -8.90625,-20.90625 -3.09375,-11.25 -3.09375,-23.25 0,-5.71875 0.65625,-11.34375 0.75,-5.625 2.25,-11.15625 -4.96875,-2.90625 -9.28125,-7.03125 -4.21875,-4.125 -7.312497,-9.09375 -3.09375,-5.0625 -4.875,-10.59375 -1.78125,-5.625 -1.78125,-11.53125 v -13.5 q 0,-5.53125 2.0625,-10.40625 2.15625,-4.96875 5.812497,-8.625 3.65625,-3.65625 8.53125,-5.71875 4.96875,-2.15625 10.5,-2.15625 6.5625,0 12.28125,3 5.8125,2.90625 9.65625,8.25 1.6875,-7.6875 5.53125,-14.625 3.9375,-7.03125 9.5625,-12.1875 5.625,-5.25 12.75,-8.34375 7.21875,-3.09375 15.46875,-3.09375 4.40625,0 8.4375,1.5 4.03125,1.5 7.21875,4.5 3.28125,-3 7.3125,-4.5 4.03125,-1.5 8.53125,-1.5 8.25,0 15.375,3.09375 7.21875,3 12.84375,8.25 5.625,5.15625 9.46875,12.09375 3.84375,6.84375 5.53125,14.625 3.9375,-5.25 9.5625,-8.15625 5.625,-2.90625 12.1875,-2.90625 z m -80.71875,175.125 q 10.21875,0 19.6875,-2.625 9.46875,-2.625 17.625,-7.5 8.25,-4.78125 15,-11.53125 6.84375,-6.75 11.625,-14.90625 4.875,-8.25 7.5,-17.71875 2.71875,-9.46875 2.71875,-19.6875 0,-12 -3.84375,-23.53125 -5.625,1.78125 -11.53125,2.53125 -5.8125,0.65625 -11.71875,0.65625 v 10.125 q 0,2.15625 -0.84375,4.03125 -0.75,1.78125 -2.15625,3.1875 -1.3125,1.3125 -3.1875,2.15625 -1.875,0.75 -3.9375,0.75 -2.0625,0 -3.9375,-0.75 -1.78125,-0.84375 -3.1875,-2.25 -1.40625,-1.40625 -2.25,-3.1875 -0.75,-1.875 -0.75,-3.9375 v -10.125 h -53.71875 v 10.125 q 0,2.0625 -0.84375,3.9375 -0.75,1.78125 -2.15625,3.1875 -1.40625,1.40625 -3.28125,2.25 -1.78125,0.75 -3.84375,0.75 -2.15625,0 -4.03125,-0.75 -1.78125,-0.84375 -3.1875,-2.15625 -1.3125,-1.40625 -2.15625,-3.1875 -0.75,-1.875 -0.75,-4.03125 v -10.125 q -5.90625,0 -11.71875,-0.65625 -5.8125,-0.65625 -11.4375,-2.53125 -3.84375,11.53125 -3.84375,23.53125 0,10.21875 2.625,19.6875 2.71875,9.46875 7.5,17.71875 4.875,8.15625 11.625,14.90625 6.84375,6.75 15,11.53125 8.25,4.875 17.71875,7.5 9.46875,2.625 19.6875,2.625 z m 47.0625,-101.0625 q 4.875,0 10.03125,-0.5625 5.25,-0.5625 10.21875,-1.96875 4.96875,-1.40625 9.375,-3.84375 4.5,-2.4375 8.0625,-6.1875 1.96875,-2.0625 3.65625,-4.5 1.6875,-2.4375 3,-5.15625 1.3125,-2.8125 2.0625,-5.625 0.75,-2.90625 0.75,-5.8125 v -13.5 q 0,-2.8125 -1.125,-5.25 -1.03125,-2.4375 -2.90625,-4.21875 -1.78125,-1.875 -4.21875,-2.90625 -2.4375,-1.125 -5.25,-1.125 -2.8125,0 -5.25,1.125 -2.4375,1.03125 -4.3125,2.90625 -1.78125,1.78125 -2.8125,4.21875 -1.03125,2.4375 -1.03125,5.25 0,2.8125 -1.125,5.25 -1.03125,2.4375 -2.90625,4.3125 -1.78125,1.78125 -4.21875,2.90625 -2.4375,1.03125 -5.25,1.03125 H 145.75195 q -2.34375,0 -4.5,-0.9375 -2.0625,-1.03125 -3.75,-2.625 -1.6875,-1.6875 -2.8125,-3.75 -1.125,-2.15625 -1.40625,-4.40625 -0.28125,-1.875 -0.46875,-3.65625 -0.0937,-1.875 -0.84375,-3.65625 -1.5,-3.5625 -5.0625,-5.71875 -3.46875,-2.25 -7.3125,-2.25 -2.8125,0 -5.25,1.125 -2.4375,1.03125 -4.3125,2.90625 -1.78125,1.78125 -2.8125,4.21875 -1.03125,2.4375 -1.03125,5.25 v 13.5 q 0,2.15625 0.375,4.21875 0.46875,1.96875 1.125,3.9375 2.4375,7.40625 7.21875,12.28125 4.875,4.875 11.0625,7.875 6.1875,2.90625 13.21875,4.125 7.125,1.21875 14.15625,1.21875 z m -31.3125,-87.5625 q -3.5625,0 -5.625,1.3125 -1.96875,1.3125 -3,4.78125 -0.375,1.40625 -0.9375,2.71875 -0.5625,1.3125 -1.40625,2.34375 -0.84375,1.03125 -2.0625,1.6875 -1.125,0.65625 -2.8125,0.65625 -1.6875,0 -2.90625,-0.5625 -1.21875,-0.65625 -2.0625,-1.6875 -0.84375,-1.125 -1.3125,-2.4375 -0.46875,-1.40625 -0.75,-2.8125 -0.5625,-3 -3.28125,-4.5 -2.625,-1.5 -5.4375,-1.5 -2.90625,0 -5.4375,0.65625 -2.53125,0.5625 -5.15625,1.78125 -5.8125,2.71875 -9.75,6.75 -3.9375,3.9375 -6.375,8.90625 -2.4375,4.96875 -3.5625,10.6875 -1.03125,5.625 -1.03125,11.625 h 94.3125 q -0.1875,-4.5 -0.75,-8.90625 -0.5625,-4.40625 -1.875,-8.53125 -1.3125,-4.125 -3.5625,-7.78125 -2.15625,-3.75 -5.625,-7.03125 -1.875,-1.6875 -4.21875,-3.1875 -2.34375,-1.5 -4.96875,-2.53125 -2.53125,-1.125 -5.25,-1.78125 -2.625,-0.65625 -5.15625,-0.65625 z m -15.84375,148.21875 q 7.78125,0 15.5625,-1.96875 7.78125,-2.0625 14.53125,-6 1.03125,-0.65625 2.34375,-1.59375 1.3125,-0.9375 2.625,-1.78125 1.40625,-0.9375 2.71875,-1.5 1.40625,-0.65625 2.71875,-0.65625 2.71875,0 4.6875,2.0625 1.96875,1.96875 1.96875,4.6875 0,1.78125 -0.75,3 -0.65625,1.21875 -1.96875,2.4375 -3.9375,3.65625 -9.375,6.46875 -5.4375,2.71875 -11.53125,4.59375 -6,1.875 -12.1875,2.8125 -6.09375,0.9375 -11.34375,0.9375 -5.25,0 -11.4375,-0.9375 -6.09375,-0.9375 -12.09375,-2.8125 -6,-1.875 -11.53125,-4.59375 -5.4375,-2.8125 -9.375,-6.46875 -1.3125,-1.21875 -2.0625,-2.4375 -0.65625,-1.21875 -0.65625,-3 0,-2.71875 1.96875,-4.6875 2.0625,-1.96875 4.78125,-1.96875 1.21875,0 2.53125,0.65625 1.40625,0.5625 2.71875,1.40625 1.40625,0.84375 2.71875,1.78125 1.3125,0.9375 2.34375,1.59375 6.75,4.03125 14.4375,6 7.78125,1.96875 15.65625,1.96875 z" />
              </g>
              <rect
                 y="197.77596"
                 x="37.27187"
                 height="8.212635"
                 width="57.806133"
                 id="rect845"
                 style="opacity:1;fill:#bb9167;fill-opacity:1;stroke:#bb9167;stroke-width:0.1111567;stroke-opacity:1" />
            </g>
          </g>
        </g>
      </g>
    </g>
  </g>
</svg>
